<svg width="21" height="31" viewBox="0 0 21 31" fill="none" xmlns="http://www.w3.org/2000/svg">
<path d="M0.196976 10.678H5.65152V24.9204C5.65152 27.9329 3.20944 30.375 0.196976 30.375V10.678Z" fill="#D30000"/>
<path fill-rule="evenodd" clip-rule="evenodd" d="M5.65152 10.678C5.65152 8.00029 7.82226 5.82954 10.5 5.82954C13.1778 5.82954 15.3485 8.00029 15.3485 10.678C15.3485 13.3558 13.1778 15.5265 10.5 15.5265C9.20884 15.5265 8.03555 15.0218 7.16667 14.1989V20.4299C8.21219 20.7872 9.33346 20.9811 10.5 20.9811C16.1902 20.9811 20.803 16.3682 20.803 10.678C20.803 4.98782 16.1902 0.375 10.5 0.375C4.8098 0.375 0.196976 4.98782 0.196976 10.678C0.196976 14.6154 2.40559 18.0369 5.65152 19.7712L5.65152 10.678Z" fill="#D30000"/>
</svg>
